<svg width="34" height="36" viewBox="0 0 34 36" fill="none" xmlns="http://www.w3.org/2000/svg">
<g clip-path="url(#clip0_100_5265)">
<path d="M16.8904 6.105C18.5762 6.105 19.9429 4.73835 19.9429 3.0525C19.9429 1.36665 18.5762 0 16.8904 0C15.2045 0 13.8379 1.36665 13.8379 3.0525C13.8379 4.73835 15.2045 6.105 16.8904 6.105Z" fill="black"/>
<path d="M24.2338 23.3855L19.8611 11.3701L19.8359 11.2465C19.8359 11.0711 19.9832 10.929 20.1667 10.929C20.3229 10.929 20.4538 11.0334 20.4886 11.1725L23.4612 18.9455C23.6588 19.3902 24.4713 19.6855 25.0056 19.6855C25.7197 19.6855 25.7937 18.2832 25.7781 18.2055L22.8056 10.5413C22.5473 8.82375 20.8127 7.10547 18.8332 7.10547H14.9593C12.9798 7.10547 11.1165 8.82375 10.8583 10.5413L8.01888 18.2055C7.9545 18.3527 8.01888 19.6855 8.7907 19.6855C9.39084 19.6855 10.1893 19.476 10.3351 18.9455L13.2026 11.1392C13.227 11.0767 13.27 11.0231 13.3256 10.9856C13.3812 10.9481 13.447 10.9283 13.5141 10.929C13.6969 10.929 13.8442 11.0711 13.8442 11.2458L13.8234 11.359L9.56326 23.3855C9.55512 23.421 9.56326 24.0892 9.56326 24.1255C9.56326 24.3815 10.1812 24.8655 10.4498 24.8655H13.1981V34.5558C13.1981 35.3254 13.876 35.9655 14.6781 35.9655C15.4803 35.9655 16.1581 35.3246 16.1581 34.5558V24.8588C16.1581 24.6494 17.6381 24.656 17.6381 24.8655V34.4855C17.6381 35.2551 18.3167 35.9655 19.1181 35.9655C19.9218 35.9655 20.5981 35.2543 20.5981 34.4855V24.8655H23.4612C23.7291 24.8655 24.2338 24.3815 24.2338 24.1255C24.2338 24.0663 24.2552 23.4365 24.2338 23.3855Z" fill="black"/>
</g>
<defs>
<clipPath id="clip0_100_5265">
<rect width="33.7799" height="35.965" fill="white"/>
</clipPath>
</defs>
</svg>
