<svg width="21" height="36" viewBox="0 0 21 36" fill="none" xmlns="http://www.w3.org/2000/svg">
<g clip-path="url(#clip0_100_5275)">
<path d="M21 13.7455V22.2545C21 22.8 20.8086 23.2636 20.4258 23.6455C20.043 24.0273 19.5781 24.2182 19.0312 24.2182C18.4844 24.2182 18.0195 24.0273 17.6367 23.6455C17.2539 23.2636 17.0625 22.8 17.0625 22.2545V15.0545H15.75V33.7091C15.75 34.3364 15.5244 34.875 15.0732 35.325C14.6221 35.775 14.082 36 13.4531 36C12.8242 36 12.2842 35.775 11.833 35.325C11.3818 34.875 11.1562 34.3364 11.1562 33.7091V24.2182H9.84375V33.7091C9.84375 34.3364 9.61816 34.875 9.16699 35.325C8.71582 35.775 8.17578 36 7.54688 36C6.91797 36 6.37793 35.775 5.92676 35.325C5.47559 34.875 5.25 34.3364 5.25 33.7091V15.0545H3.9375V22.2545C3.9375 22.8 3.74609 23.2636 3.36328 23.6455C2.98047 24.0273 2.51562 24.2182 1.96875 24.2182C1.42188 24.2182 0.957031 24.0273 0.574219 23.6455C0.191406 23.2636 0 22.8 0 22.2545V13.7455C0 12.6545 0.382813 11.7273 1.14844 10.9636C1.91406 10.2 2.84375 9.81818 3.9375 9.81818H17.0625C18.1562 9.81818 19.0859 10.2 19.8516 10.9636C20.6172 11.7273 21 12.6545 21 13.7455ZM15.0938 4.58182C15.0938 5.85 14.646 6.93068 13.7505 7.82386C12.855 8.71704 11.7715 9.16364 10.5 9.16364C9.22852 9.16364 8.14502 8.71704 7.24951 7.82386C6.354 6.93068 5.90625 5.85 5.90625 4.58182C5.90625 3.31364 6.354 2.23295 7.24951 1.33977C8.14502 0.446591 9.22852 0 10.5 0C11.7715 0 12.855 0.446591 13.7505 1.33977C14.646 2.23295 15.0938 3.31364 15.0938 4.58182Z" fill="#008000"/>
</g>
<defs>
<clipPath id="clip0_100_5275">
<rect width="21" height="36" fill="white"/>
</clipPath>
</defs>
</svg>
